<svg id="Calque_1" data-name="Calque 1" xmlns="http://www.w3.org/2000/svg" width="32" height="32" viewBox="0 0 32 32"><defs><style>.cls-1{fill:#fff;}</style></defs><title>Instagram</title><circle class="cls-1" cx="16" cy="16" r="4.3"/><path class="cls-1" d="M25.4,5H6.6A1.9,1.9,0,0,0,4.8,6.9V25.1A1.9,1.9,0,0,0,6.6,27H25.4a1.9,1.9,0,0,0,1.9-1.9V6.9A1.9,1.9,0,0,0,25.4,5ZM16,23.1A7.1,7.1,0,1,1,23.1,16,7.1,7.1,0,0,1,16,23.1Zm7.7-12.8a1.5,1.5,0,0,1-1.5-1.5h0a1.5,1.5,0,0,1,1.5-1.5h0a1.5,1.5,0,0,1,1.5,1.5h0a1.5,1.5,0,0,1-1.5,1.5Z"/></svg>