<svg width="833" height="59" viewBox="0 0 833 59" fill="none" xmlns="http://www.w3.org/2000/svg">
<path d="M0 0H833V54C833 56.7614 830.761 59 828 59H5.00002C2.2386 59 0 56.7614 0 54V0Z" fill="#ACACAE"/>
<line x1="163" y1="30" x2="656" y2="30" stroke="#F5F5F7" stroke-width="2" stroke-linecap="round"/>
<path d="M163 29C162.448 29 162 29.4477 162 30C162 30.5523 162.448 31 163 31V29ZM325.667 30C325.667 32.9455 328.054 35.3333 331 35.3333C333.946 35.3333 336.333 32.9455 336.333 30C336.333 27.0545 333.946 24.6667 331 24.6667C328.054 24.6667 325.667 27.0545 325.667 30ZM163 31L331 31V29L163 29V31Z" fill="#EB0000"/>
<mask id="mask0_156_178" style="mask-type:alpha" maskUnits="userSpaceOnUse" x="74" y="14" width="32" height="32">
<rect x="74" y="14" width="32" height="32" fill="#D9D9D9"/>
</mask>
<g mask="url(#mask0_156_178)">
<path d="M84.6665 39.3327V20.666L99.3332 29.9993L84.6665 39.3327ZM87.3332 34.466L94.3332 29.9993L87.3332 25.5327V34.466Z" fill="#030303"/>
</g>
<mask id="mask1_156_178" style="mask-type:alpha" maskUnits="userSpaceOnUse" x="48" y="18" width="24" height="24">
<rect x="48" y="18" width="24" height="24" fill="#D9D9D9"/>
</mask>
<g mask="url(#mask1_156_178)">
<path d="M53.5 36V24H55.5V36H53.5ZM66.5 36L57.5 30L66.5 24V36ZM64.5 32.25V27.75L61.1 30L64.5 32.25Z" fill="#030303"/>
</g>
<mask id="mask2_156_178" style="mask-type:alpha" maskUnits="userSpaceOnUse" x="106" y="18" width="24" height="24">
<rect x="106" y="18" width="24" height="24" fill="#D9D9D9"/>
</mask>
<g mask="url(#mask2_156_178)">
<path d="M122.5 36V24H124.5V36H122.5ZM111.5 36V24L120.5 30L111.5 36ZM113.5 32.25L116.9 30L113.5 27.75V32.25Z" fill="#030303"/>
</g>
<mask id="mask3_156_178" style="mask-type:alpha" maskUnits="userSpaceOnUse" x="761" y="18" width="24" height="24">
<rect x="761" y="18" width="24" height="24" fill="#D9D9D9"/>
</mask>
<g mask="url(#mask3_156_178)">
<path d="M770.25 40L769.85 36.8C769.633 36.7167 769.429 36.6167 769.238 36.5C769.046 36.3833 768.858 36.2583 768.675 36.125L765.7 37.375L762.95 32.625L765.525 30.675C765.508 30.5583 765.5 30.4457 765.5 30.337V29.662C765.5 29.554 765.508 29.4417 765.525 29.325L762.95 27.375L765.7 22.625L768.675 23.875C768.858 23.7417 769.05 23.6167 769.25 23.5C769.45 23.3833 769.65 23.2833 769.85 23.2L770.25 20H775.75L776.15 23.2C776.367 23.2833 776.571 23.3833 776.763 23.5C776.954 23.6167 777.142 23.7417 777.325 23.875L780.3 22.625L783.05 27.375L780.475 29.325C780.492 29.4417 780.5 29.554 780.5 29.662V30.337C780.5 30.4457 780.483 30.5583 780.45 30.675L783.025 32.625L780.275 37.375L777.325 36.125C777.142 36.2583 776.95 36.3833 776.75 36.5C776.55 36.6167 776.35 36.7167 776.15 36.8L775.75 40H770.25ZM773.05 33.5C774.017 33.5 774.842 33.1583 775.525 32.475C776.208 31.7917 776.55 30.9667 776.55 30C776.55 29.0333 776.208 28.2083 775.525 27.525C774.842 26.8417 774.017 26.5 773.05 26.5C772.067 26.5 771.237 26.8417 770.562 27.525C769.887 28.2083 769.55 29.0333 769.55 30C769.55 30.9667 769.887 31.7917 770.562 32.475C771.237 33.1583 772.067 33.5 773.05 33.5ZM773.05 31.5C772.633 31.5 772.279 31.354 771.988 31.062C771.696 30.7707 771.55 30.4167 771.55 30C771.55 29.5833 771.696 29.2293 771.988 28.938C772.279 28.646 772.633 28.5 773.05 28.5C773.467 28.5 773.821 28.646 774.113 28.938C774.404 29.2293 774.55 29.5833 774.55 30C774.55 30.4167 774.404 30.7707 774.113 31.062C773.821 31.354 773.467 31.5 773.05 31.5ZM772 38H773.975L774.325 35.35C774.842 35.2167 775.321 35.0207 775.763 34.762C776.204 34.504 776.608 34.1917 776.975 33.825L779.45 34.85L780.425 33.15L778.275 31.525C778.358 31.2917 778.417 31.0457 778.45 30.787C778.483 30.529 778.5 30.2667 778.5 30C778.5 29.7333 778.483 29.4707 778.45 29.212C778.417 28.954 778.358 28.7083 778.275 28.475L780.425 26.85L779.45 25.15L776.975 26.2C776.608 25.8167 776.204 25.4957 775.763 25.237C775.321 24.979 774.842 24.7833 774.325 24.65L774 22H772.025L771.675 24.65C771.158 24.7833 770.679 24.979 770.238 25.237C769.796 25.4957 769.392 25.8083 769.025 26.175L766.55 25.15L765.575 26.85L767.725 28.45C767.642 28.7 767.583 28.95 767.55 29.2C767.517 29.45 767.5 29.7167 767.5 30C767.5 30.2667 767.517 30.525 767.55 30.775C767.583 31.025 767.642 31.275 767.725 31.525L765.575 33.15L766.55 34.85L769.025 33.8C769.392 34.1833 769.796 34.504 770.238 34.762C770.679 35.0207 771.158 35.2167 771.675 35.35L772 38Z" fill="#030303"/>
</g>
<mask id="mask4_156_178" style="mask-type:alpha" maskUnits="userSpaceOnUse" x="689" y="18" width="24" height="24">
<rect x="689" y="18" width="24" height="24" fill="#D9D9D9"/>
</mask>
<g mask="url(#mask4_156_178)">
<path d="M694 33V27H698L703 22V38L698 33H694ZM705 34V25.95C705.75 26.3 706.354 26.8417 706.812 27.575C707.271 28.3083 707.5 29.1167 707.5 30C707.5 30.8833 707.271 31.6833 706.812 32.4C706.354 33.1167 705.75 33.65 705 34ZM701 26.85L698.85 29H696V31H698.85L701 33.15V26.85Z" fill="#030303"/>
</g>
</svg>
